<?xml version="1.0" encoding="utf-8"?>
<!-- Generator: Adobe Illustrator 24.0.1, SVG Export Plug-In . SVG Version: 6.00 Build 0)  -->
<svg version="1.1"
	 id="NexT" xmlns:cc="http://creativecommons.org/ns#" xmlns:dc="http://purl.org/dc/elements/1.1/" xmlns:rdf="http://www.w3.org/1999/02/22-rdf-syntax-ns#" xmlns:svg="http://www.w3.org/2000/svg"
	 xmlns="http://www.w3.org/2000/svg" xmlns:xlink="http://www.w3.org/1999/xlink" x="0px" y="0px" viewBox="0 0 512 512"
	 style="enable-background:new 0 0 512 512;" xml:space="preserve">
<style type="text/css">
	.st0{fill:#FF3333;}
</style>
<path class="st0" d="M396.8,398.6L293,373.3c-5.3-1.3-10.9,0.2-14.9,4l-77.6,73.4c-9.9,9.4-26.3,3-27.6-10.9L162.4,330
	c-0.5-5.4-3.6-10.3-8.3-13.1l-93.7-55C48.7,255,49.5,237.4,62,232l97.7-42.3c5-2.2,8.6-6.7,9.6-12.1l20.1-107.2
	c2.6-13.7,19.5-18.2,28.5-7.6l70.6,83.2c3.6,4.2,8.9,6.4,14.3,5.8L408.8,140c13.5-1.5,23,13.4,16.2,25.2l-54.1,94.2
	c-2.7,4.7-3,10.5-0.7,15.4l45.3,100.5C421.1,388.1,410.1,401.8,396.8,398.6z"/>
</svg>
